<svg xmlns="http://www.w3.org/2000/svg" data-name="Layer 1" viewBox="0 0 1200 900"><path d="M577.7 106.1c-34.2 2.2-67.7 9.8-101.7 23.1-46.1 18-82.3 41.7-117.5 77.2-29.4 29.5-45.2 51.9-65.6 92.6-13.4 26.9-17.1 28.9-58.9 33.1-17 1.6-17.2 1.7-16.8 7.6l.3 4.8 46.3.3c40.8.2 46.2 0 46.2-1.3a9.11 9.11 0 0 1 .9-3.3c.5-.9 2.4-5.5 4.2-10.2s5.5-12.9 8.1-18.3 4.8-9.9 4.8-10.2c0-.9 10.9-19 16.7-27.7 7.3-10.9 22.1-29.7 29.7-37.7A254.54 254.54 0 0 1 393 217.8c9.2-8.2 10.9-9.6 15-12.8 1.8-1.4 4.2-3.3 5.4-4.3 2.5-2.2 25.1-17.3 31.6-21.1 8.4-5 35.5-17.8 46-21.9 32.4-12.5 72.3-19.7 109.2-19.7 16.9 0 40.6 2.1 53.3 4.6 4.4.9 10.9 2.2 14.5 2.9 8.6 1.7 25 6.2 27.2 7.5a9.34 9.34 0 0 0 3.4 1c3.5 0 34.7 13.6 48.6 21.3 41 22.5 73.5 50.8 100.7 87.7 2.2 3 4.4 5.9 4.8 6.5 6.9 8.6 27.3 45.3 27.3 49.1 0 .8.4 1.4.8 1.4s1.4 1.7 2.1 3.7 1.6 4.7 2.1 5.8c3 7.4 5 13 5 14.1s7.5 1.4 46.3 1.2l46.2-.3.3-5.2.3-5.1-3.8-.6c-2.1-.3-10.5-1.3-18.8-2.2-36.4-3.8-40.2-6.2-53.8-33.6-9.9-19.8-13.2-25.7-20.6-36.7-3.4-5.1-6.1-9.6-6.1-10a1.65 1.65 0 0 0-.8-1.3c-.5-.2-4-4.6-8-9.8s-8.3-10.9-9.7-12.5-4-4.6-5.7-6.5c-8-9.4-26.7-27.7-35.3-34.5-2.7-2.2-5.4-4.5-6-5.1-1.7-1.9-20.7-15.8-27.3-19.9C771 151.3 767.6 149.4 755 143c-44-22.2-87.9-34.1-136-37C601.4 104.9 595.8 105 577.7 106.1zM193.6 398.7c-.8.8-.8 89.7 0 91.8.5 1.2 2.7 1.5 10.4 1.5h9.9l.7-4.8c.4-2.6.4-18 .1-34.3s-.4-29.9-.1-30.2 16.1 15.2 35.1 34.4L284.4 492H311V398H290v70.5l-34.7-35.3L220.5 398H207.4C200.2 398 194 398.3 193.6 398.7zM357.4 399.3c-.2.7-.3 21.7-.2 46.7l.3 45.5 10.3.3 10.2.3V398H368C360.7 398 357.8 398.4 357.4 399.3zM435.5 400.4c-5.2 2.4-11.2 8.2-14 13.6-3.2 6.1-2.1 21.7 1.7 26.5.5.5 1.8 2.3 2.9 3.8 3.1 4.2 8.6 7.2 15.3 8.5 3.8.8 17.5 1.2 37.8 1.2 32.5 0 34.7.2 37.5 3.9 2.1 2.8 1.5 8.7-1.1 11.8l-2.4 2.8-45.4.5-45.3.5v18h49c45.7 0 49.2-.1 52.4-1.8 8.5-4.7 13.3-11.7 15.1-22.2A29.21 29.21 0 0 0 525.5 438l-4-2.5L484 435c-41.1-.5-41-.5-43-6.6a8 8 0 0 1-.1-5.5c2-5.5 1-5.4 48-5.9l43.6-.5.3-9.3.3-9.2-46.3.1C440.8 398.1 440.5 398.1 435.5 400.4zM595.8 399.5c-8.5 2.3-14.3 7.9-17.7 17-3.9 10.4-.3 24 8.2 30.8 7.9 6.3 10.9 6.7 49.2 6.7h34.2l2.7 2.5c2.6 2.4 3.3 6.2 2 11s-1.9 5-49.9 5.5l-45 .5-.3 9.2-.3 9.3h47.5c45 0 47.8-.1 52.9-2 9.1-3.4 15.2-11.4 16.7-22 1.4-9.8-1.3-18.8-7.4-25.3-6.8-7.3-5.9-7.1-48.1-7.8-20.9-.3-38.1-.7-38.2-.7-4.7-3.5-5.8-10.7-2.2-14.5 2-2.2 2.1-2.2 46-2.5l43.9-.3V398l-44.7.1C612.1 398.2 599.3 398.5 595.8 399.5zM776 403.7c-1.9 3.2-5.1 8.4-7.2 11.5s-3.8 6-3.8 6.4a5 5 0 0 1-1.4 2.3 22.54 22.54 0 0 0-2.8 4.1c-.7 1.4-5.3 8.8-10.1 16.5s-9.4 14.9-10 15.9-4.4 7-8.3 13C725.6 484 722 490.3 722 491.5c0 .3 5.4.5 12 .5h12l5.5-8.5L757 475h67.9l1.8 2.4c1 1.3 3.5 5.1 5.6 8.5L836 492h12c7.1 0 12-.4 12-1 0-1.1-51.7-84.2-56.5-90.8-1.5-2.1-2.3-2.2-12.8-2.2H779.4zm19.5 22.5c2.2 3.4 4.5 7.1 5.1 8.3 1.2 2.4 3.3 5.7 9.1 14.8 2.4 3.7 4.1 7.2 3.8 7.7-.8 1.3-44.2 1.3-45 .1-.3-.6 1.5-4.1 4-8s4.5-7.4 4.5-7.9a1.68 1.68 0 0 1 .8-1.4c.8-.3 4.7-6.3 11.1-17 .9-1.6 1.8-2.8 2.1-2.8S793.3 422.8 795.5 426.2zM889 445v47h21V457.4c0-20.7.4-34.4.9-34.2 1.4.5 6.8 5.7 39.5 38.7l30 30.2 13-.3 13.1-.3v-93l-10.2-.3-10.3-.3v34c0 18.7-.4 34.2-.9 34.5s-7.4-6.1-15.4-14.2-23.4-23.6-34.1-34.5L916 398H889zM217.7 545.7c-1.2 1.1-.8 9.1.4 9.9.7.4 6.4 1.3 12.8 2 34.5 3.9 36.3 4.3 43.6 8.6 6.6 3.9 11.2 10.3 20 27.8 8.4 16.9 8.3 16.7 15.4 28.5 21.5 35.3 52.9 69.6 86.4 94.4 8.6 6.3 19.2 13.5 31.2 20.9 5 3 32.8 17.2 33.9 17.2a55.85 55.85 0 0 1 5.8 2.4c18.5 8.5 49.2 17.8 70.8 21.5a340.74 340.74 0 0 0 46.7 5.3c16 .8 24.9.8 36.1 0 13.9-1.1 36.6-4.1 45.7-6.1 2.2-.5 6.3-1.4 9-1.9s8.4-2 12.5-3.2 8.9-2.5 10.5-3c4.7-1.3 18.8-5.9 21-6.9 1.1-.4 3.4-1.4 5-2.1s3.8-1.6 4.7-2.1a8.36 8.36 0 0 1 2.7-.9c.5 0 6.6-2.7 13.4-6s13-6 13.6-6a1.1 1.1 0 0 0 1.1-1 .94.94 0 0 1 1-1c3.3 0 37.8-22.7 52.5-34.5 22.3-18 45.7-42.1 58.8-60.7 2.6-3.6 5.4-7.3 6.2-8.2a5.77 5.77 0 0 0 1.5-2c0-.2 2.1-3.5 4.7-7.3 7-10.3 12.2-19.3 20.3-35.8 10.8-21.6 13.1-24.9 21-29.3 8.3-4.6 9.1-4.8 40.5-8.2 18-1.9 16.6-1.3 16.3-7.3l-.3-5.2-46-.3-46.1-.2-1.3 4.7a56.93 56.93 0 0 1-2.2 6.3c-.7 1.7-1.8 4.2-4.6 11-5.2 12.9-18.3 37.2-26.4 49-3.3 4.8-17.1 23.4-17.8 24-.3.3-3.3 3.6-6.5 7.5C822.5 658.2 800 680 797.9 680a1.48 1.48 0 0 0-1.1.8c-.2.6-6.2 5.5-13.8 11.5-3.5 2.8-14 9.7-20.5 13.7-25.8 15.8-51.3 27-78.9 34.6-29.3 8.2-49.2 10.8-83.1 10.8-34.6 0-54.6-2.6-84.5-10.9-12.1-3.3-35-11.4-36-12.6a7.55 7.55 0 0 0-3-1.4c-7.4-2.3-45.9-23.3-46.8-25.7a1.68 1.68 0 0 0-1.4-.8c-1.3 0-13.4-8.8-21-15.2a52.1 52.1 0 0 0-6.2-4.8c-.7 0-15.1-13.5-22.9-21.5a358.21 358.21 0 0 1-28.2-34c-2.7-3.9-5.2-7.2-5.5-7.5a24.37 24.37 0 0 1-1.7-2.5c-.7-1.1-3.8-6.2-6.9-11.3-9.9-16.4-26.4-51.9-26.4-56.9 0-1-9.7-1.3-45.8-1.3C239 545 218 545.3 217.7 545.7z"/></svg>