<svg xmlns="http://www.w3.org/2000/svg" enable-background="new 0 0 24 24" viewBox="0 0 24 24"><path fill="#37474F" d="M17.087,4.656c0.598,0.72,0.827,1.682,0.808,2.674c-0.106,3.006-1.77,4.625-3.679,5.479c0.28,0.423,0.631,1.223,0.848,1.659c0.054-0.021,0.225-0.081,0.278-0.102c2.298,2.465,2.514,6.065,2.553,7.049c0.039,0.984-0.472,1.849-1.258,2.558H21c-0.668-0.354-0.904-1.299-0.943-2.203c-0.432-4.092-2.712-7.279-3.262-8.105c2.589-1.555,3.734-3.938,3.734-6.138c0-2.887-2.066-4.594-4.283-5.177C16.421,2.647,16.908,3.615,17.087,4.656L17.087,4.656z"/><path fill="#37474F" d="M12.669,21.837h4.363c-0.668-0.354-0.904-1.298-0.943-2.203c-0.432-4.092-2.712-7.279-3.262-8.105C15.415,9.973,16.56,7.59,16.56,5.39c0-3.659-3.223-5.39-6.014-5.39h-7.35c0.275,0.393,0.472,0.551,0.472,1.456v18.65c0,0.905-0.393,1.338-0.668,1.731h3.341c-0.275-0.393-0.668-0.826-0.668-1.731v-6.847c2.252-0.036,4.133-0.409,5.642-1.009c2.298,2.465,2.572,6.046,2.611,7.03C13.966,20.263,13.455,21.128,12.669,21.837L12.669,21.837z M5.673,11.568V1.298h4.323c2.987,0,3.97,1.889,3.93,3.895C13.731,10.741,8.226,11.568,5.673,11.568L5.673,11.568z"/><path fill="#303E45" d="M8.641,0H3.196c0.275,0.393,0.472,0.551,0.472,1.456v18.65c0,0.905-0.393,1.338-0.668,1.731h3.341c-0.275-0.393-0.668-0.826-0.668-1.731v-6.847c1.074-0.017,2.064-0.111,2.969-0.269v-1.773c-1.109,0.273-2.18,0.352-2.969,0.352V1.298h2.969V0L8.641,0z"/><path fill="#37474F" d="M9.601 15.423c1.035-.015 2.031-.103 2.91-.25-.119-.399-.551-1.265-.767-1.622-.803.136-1.551.18-2.142.18v-.433c-.274.098-1.493.275-2.005.334v8.636c0 .905-.393 1.338-.668 1.731h3.342c-.276-.393-.669-.826-.669-1.731v-6.845H9.601L9.601 15.423zM13.141 3.401H9.603v7.043c-.451.157-1.355.452-2.005.511V3.558c0-.905-.196-1.062-.471-1.456h4.893C12.414 2.339 12.945 2.909 13.141 3.401L13.141 3.401z"/><path fill="#303E45" d="M9.603 13.298c-.274.098-1.493.275-2.005.334v8.636c0 .905-.393 1.338-.668 1.731h3.342c-.276-.393-.669-.826-.669-1.731v-6.845H9.601c1.035-.015 2.031-.103 2.91-.25-.119-.399-.551-1.265-.767-1.622-.803.136-1.551.18-2.142.18V13.298L9.603 13.298zM12.02 2.102H7.127c.275.394.471.551.471 1.456v7.397c.65-.059 1.554-.354 2.005-.511V3.401h3.537C12.945 2.909 12.414 2.339 12.02 2.102L12.02 2.102z"/></svg>