<?xml version="1.0" encoding="utf-8"?>
<!-- Generator: Adobe Illustrator 25.0.0, SVG Export Plug-In . SVG Version: 6.00 Build 0)  -->
<svg version="1.1" id="Ebene_1" xmlns="http://www.w3.org/2000/svg" xmlns:xlink="http://www.w3.org/1999/xlink" x="0px" y="0px"
	 viewBox="0 0 2089 300" style="enable-background:new 0 0 2089 300;" xml:space="preserve">
<style type="text/css">
	.st0{fill:#307DFF;}
</style>
<g>
	<path class="st0" d="M162.2,149.4c0,8.7-7.2,15.9-16,16c-3.2,0-6.2-1-8.7-2.5l-2.9-2.2c-3-3-4.8-7.3-4.8-11.6c0-8.9,7.3-16,16.4-16
		C155.1,133.2,162.2,140.5,162.2,149.4 M119.5,111.8c-21,14.8-26.1,43.7-11.3,64.6c2.9,4.1,6.4,7.6,10.3,10.6l74,62.1
		c-14.3,6.4-29.7,9.7-45.4,9.7C87,258.8,38,210.1,38,149.7C38,89.5,86.8,40.6,147.2,40.6c15.7,0,31.4,3.5,45.7,10L119.5,111.8z
		 M263.4,226.3h67.7c-22.1,19.4-50.2,30.8-79.6,32.2l-8.7-7.5C250.7,243.6,257.5,235.3,263.4,226.3 M251.8,40.4
		c29.2,1.6,57,12.9,78.9,31.9h-67.3c-6-8.9-13-17-20.6-24.5L251.8,40.4z M241.8,95.2l4.5,7.5h142.9L376,80.2
		C352.2,39,299,10.3,246.3,10.3h-5.7l-22.9,19.4C151.3-9.4,65.8,12.8,26.9,79c-39.1,66.4-16.8,151.8,49.4,190.8
		c21.4,12.6,45.9,19.2,70.8,19.2c24.8,0,49.2-6.7,70.5-19.4l22.9,19.4h5.7c52.7,0,106.3-28.9,129.8-70.2l12.9-22.6H246.6l-4.4,7.5
		c-6,10.5-13.7,19.9-22.6,28l-50.2-41.9c22.2-12.7,29.7-41.1,17-63.2c-4.1-7.1-10-13-17-17l49.9-41.6
		C228.3,75.7,235.9,84.9,241.8,95.2"/>
	<path class="st0" d="M677.7,230.6c-12,3.3-24.5,4.9-37,4.6c-11.1,0.2-22.4-1.9-32.6-6.5c-8.8-3.9-16.4-10-22.4-17.6
		c-6-8.1-10.6-17.3-13-27.1c-3-11.3-4.4-22.7-4.2-34.4c-0.2-12.5,1.6-25,5.5-37c3.2-9.9,8.3-18.9,15.2-26.6
		c6.3-7.1,14.1-12.3,22.9-15.9c9.2-3.5,18.9-5.3,28.6-5.3c11.1-0.2,22.2,1.4,32.8,4.6c8.1,2.3,15.9,5.5,23.3,9.7L709.4,44
		c-1.6-0.9-4.2-2.3-8.1-4.4c-4.8-2.5-9.5-4.4-14.6-5.8c-6.9-1.9-13.7-3.7-20.8-4.9c-8.8-1.6-17.8-2.3-26.6-2.3
		c-15.5-0.2-30.8,2.6-45.3,8.1c-13.9,5.3-26.4,13.4-36.8,24c-10.8,11.1-19.2,24.1-24.7,38.6c-6.3,16.7-9.3,34.5-9,52.3
		c-0.4,17.8,2.3,35.4,7.8,52.3c4.8,14.3,12.3,27.5,22.4,38.6c10,10.6,22.2,18.9,35.8,24c15.2,5.6,31.4,8.3,47.6,8.1
		c8.5,0.2,17.1-0.4,25.4-0.7c7.2-0.9,14.4-2.3,21.5-4.1c5.6-1.4,11.1-3.2,16.6-5.3c3.9-1.4,7.6-3.3,11.1-5.5L699.9,222
		C692.6,225.5,685.2,228.3,677.7,230.6"/>
	<path class="st0" d="M838.7,236.6c-9.5,1.6-19.2,2.1-28.9,1.9c-8.8,0.5-17.4-1.4-25-5.6c-6.2-3.7-9.2-10.4-9.2-20.3
		c-0.2-4.4,1.1-8.6,3.5-12.3c2.3-3.2,5.3-5.8,9-7.6c3.9-1.9,8.1-3.2,12.5-3.7c4.6-0.7,9.3-1.1,13.9-1.1c4.8,0,9.5,0.4,14.3,1.1
		c3.3,0.4,6.7,1.1,9.9,1.9L838.7,236.6L838.7,236.6z M863.1,104.4c-6-6.5-13.7-11.5-22.2-14.3c-11.1-3.7-22.9-5.5-34.5-5.1
		c-10.8,0.2-21.3,1.1-32.1,3.2c-7.8,1.2-15.3,3.2-22.7,5.5l5.1,33.3c6.3-2.1,12.9-3.7,19.6-4.8c8.8-1.4,17.4-2.1,26.3-2.1
		c6-0.2,11.8,0.7,17.4,2.6c4.4,1.6,8.3,4.2,11.3,7.6c2.8,3.3,4.9,7.2,6,11.3c1.2,4.4,1.8,9,1.8,13.6v6.9c-5.3-1.2-10.8-2.1-16-2.8
		c-4.8-0.5-9.5-0.9-14.3-0.9c-9.3-0.2-18.9,0.9-28,2.8c-8.3,1.8-16.4,4.9-23.6,9.5c-6.7,4.2-12.3,10.2-16.2,17.1
		c-4.2,7.9-6.3,16.9-6,25.9c-0.4,9.2,1.6,18.3,5.3,26.8c3.3,6.9,8.3,13,14.4,17.6c6.7,4.8,14.5,8.1,22.6,9.9
		c9.7,2.1,19.4,3.2,29.3,3c14.4,0.2,28.9-0.7,43.4-2.8c12.9-1.9,22.4-3.5,28.7-4.9V155.4c0-9.7-1.1-19.4-3.5-28.7
		C872.8,118.5,868.7,110.8,863.1,104.4"/>
	<path class="st0" d="M1018.7,87.9c-3.7-0.5-7.2-1.1-10.9-1.4c-3.5-0.4-6.7-0.5-9.5-0.5c-13.4-0.2-26.6,1.2-39.7,3.9
		c-10,2.1-20.1,4.8-29.8,8.3v169.7H970V125.2c3.5-1.1,7.1-1.9,10.8-2.5c4.8-0.9,9.7-1.4,14.5-1.4c6.9,0,13.9,0.5,20.8,1.9
		c4.8,0.9,9.5,2.1,14.1,3.5l7-34.7c-1.9-0.5-4.8-1.2-8.1-2.1C1025.9,89.1,1022.4,88.4,1018.7,87.9"/>
	<path class="st0" d="M1213.6,230.6c-12,3.3-24.5,4.9-37,4.6c-11.3,0.2-22.4-1.9-32.6-6.5c-8.8-3.9-16.4-10-22.4-17.6
		c-6-8.1-10.6-17.3-13-27.1c-2.8-11.3-4.4-22.7-4.2-34.4c-0.2-12.5,1.6-25,5.5-37c3.2-9.9,8.3-18.9,15.2-26.6
		c6.3-7.1,14.1-12.3,22.9-15.9c9-3.5,18.9-5.5,28.5-5.3c11.1-0.2,22.2,1.4,32.8,4.6c8.1,2.3,15.9,5.5,23.3,9.7L1245,44
		c-1.6-0.9-4.2-2.3-8.1-4.4c-4.8-2.5-9.5-4.4-14.6-5.8c-6.9-1.9-13.7-3.7-20.8-4.9c-8.8-1.6-17.8-2.3-26.6-2.3
		c-15.5-0.2-30.8,2.6-45.3,8.1c-13.9,5.3-26.4,13.4-36.8,24c-10.8,11.1-19.2,24.1-24.7,38.6c-6.3,16.7-9.3,34.5-9,52.3
		c-0.4,17.8,2.3,35.4,7.8,52.3c4.8,14.3,12.3,27.5,22.6,38.6c9.9,10.6,22.2,18.9,35.8,24c15.2,5.6,31.4,8.3,47.6,8.1
		c8.5,0.2,16.9-0.4,25.6-0.7c7.2-0.9,14.5-2.3,21.5-4.1c5.6-1.4,11.1-3.2,16.6-5.3c3.9-1.4,7.6-3.3,11.1-5.5l-11.6-35.1
		C1228.6,225.5,1221.2,228.3,1213.6,230.6"/>
	<path class="st0" d="M1422.4,89.6h-41.1v143.6c-4.1,0.9-8.1,1.4-12.3,1.8c-5.6,0.5-10.9,0.7-15.9,0.7c-13.9,0-23.4-4.1-29.1-12.2
		c-5.5-8.1-8.3-21.7-8.3-40.7V89.6h-41.1v99.6c-0.2,11.1,1.1,22.2,3.7,33.1c2.1,9.5,6.3,18.3,12.3,26.1c6.2,7.6,14.3,13.4,23.3,16.9
		c11.3,4.4,23.6,6.5,35.8,6.2c13.9,0.2,28-0.9,41.8-3.2c12.7-2.3,23.1-4.2,31-6.3h-0.2V89.6z"/>
	<path class="st0" d="M1563.9,234c-6.5,1.6-13.2,2.5-19.9,2.3c-10.8,0-18.5-3-23.1-9.2c-4.6-6.2-6.9-16.4-6.9-30.7V124h63.3V89.6
		h-63.3V53.1L1473,60l0.4,136.9c-0.2,10.6,0.9,21.1,3,31.4c1.8,8.5,5.3,16.4,10.4,23.4c5.3,6.7,12.3,11.8,20.3,14.8
		c10.2,3.7,21.1,5.5,31.9,5.1c9.2,0.2,18.3-0.9,27.1-3.2c6.3-1.8,12.5-3.9,18.7-6.3l-6.9-32.6C1573.3,231.3,1568.7,232.7,1563.9,234
		"/>
	<path class="st0" d="M1706,234c-6.5,1.6-13.2,2.5-19.9,2.3c-10.9,0-18.5-3-23.1-9.2c-4.4-6.2-6.7-16.4-6.7-30.7V124h63.4V89.6
		h-63.3V53.1l-41.2,6.9V197c-0.2,10.6,0.9,21.1,3,31.4c1.8,8.5,5.3,16.4,10.4,23.4c5.3,6.7,12.3,11.8,20.3,14.8
		c10.2,3.7,21.1,5.5,31.9,5.1c9.2,0.2,18.3-0.9,27.1-3.2c6.3-1.8,12.5-3.9,18.7-6.3l-6.7-32.6C1715.3,231.3,1710.8,232.7,1706,234"
		/>
	<path class="st0" d="M1865.8,161.2h-76.7c0.7-5.3,1.9-10.4,3.7-15.3c1.8-4.8,4.4-9.3,7.8-13.2c3.3-4.1,7.6-7.2,12.2-9.5
		c5.3-2.5,10.9-3.7,16.7-3.5c5.5-0.2,10.9,0.9,15.9,3.2c4.4,2.1,8.3,5.1,11.3,8.8c3,3.9,5.5,8.5,6.9,13.2c1.6,5.3,2.3,10.7,2.3,16.2
		V161.2z M1829.2,85c-10.6,0-21,2.1-30.7,6c-10,3.9-19,9.9-26.6,17.6c-8.1,8.5-14.4,18.5-18.5,29.4c-4.8,13.2-7.2,27.1-6.9,41.2
		c-0.2,12.5,1.8,25,5.8,37c3.3,10.8,9,20.8,16.6,29.3c7.9,8.6,17.6,15.2,28.5,19.4c12.9,4.8,26.8,7.2,40.7,6.9c6,0,12-0.4,18-1.1
		c6.2-0.7,11.5-1.6,16.6-2.6c4.6-0.9,9.2-2.1,13.6-3.5c3.2-0.9,6.3-2.1,9.3-3.5l-5.5-33.7c-6.3,2.5-12.9,4.4-19.6,5.8
		c-9.2,1.8-18.3,2.6-27.5,2.6c-17.1,0-30-4.1-38.9-11.8c-9-7.8-13.9-18.9-15.2-33.1h117.4c0.2-2.1,0.3-4.8,0.5-7.6
		c0.2-2.8,0.2-5.3,0.2-7.6c0-30.1-6.9-52.9-20.6-68C1872.7,92.6,1853.7,85,1829.2,85"/>
	<path class="st0" d="M2050.9,89.8c-3.3-0.9-6.7-1.6-10.4-2.1c-3.7-0.5-7.2-1.1-10.9-1.4c-3.5-0.4-6.9-0.5-9.5-0.5
		c-13.4-0.2-26.6,1.2-39.6,3.9c-10,2.1-20.1,4.8-29.8,8.3v169.7h41.2V125.1c8.3-2.3,16.7-3.5,25.2-3.7c6.9,0,13.9,0.5,20.8,1.9
		c4.8,0.9,9.5,2.1,14.1,3.5l7-34.9C2057.1,91.4,2054.2,90.7,2050.9,89.8"/>
</g>
</svg>
